<svg version="1.1" id="Layer_1" xmlns="http://www.w3.org/2000/svg" xmlns:xlink="http://www.w3.org/1999/xlink" x="0px" y="0px"
	 width="100%" viewBox="0 0 512 512" enable-background="new 0 0 512 512" xml:space="preserve">
<rect width="100%" height="100%" fill="#fff7f8"/>
<path fill="#0f4f00" opacity="1.000000" stroke="none" 
	d="
M227.318863,211.742249 
	C223.723999,205.942627 223.657043,201.616592 226.946686,197.083878 
	C229.449478,193.635361 236.827301,191.343918 241.451385,192.515533 
	C244.992752,193.412842 248.523376,194.416672 252.117538,195.027527 
	C258.590912,196.127716 265.015900,196.649994 270.717102,192.148346 
	C271.816162,191.280533 273.463654,190.961685 274.913879,190.707718 
	C284.479187,189.032516 293.068085,184.946762 299.709106,178.101608 
	C305.893707,171.726898 310.050415,163.791199 312.821167,155.152954 
	C315.403473,147.102280 318.105469,138.655792 314.195831,130.967880 
	C310.573883,123.845673 307.459290,114.795197 296.530212,114.863373 
	C293.610016,114.881592 291.102661,112.688171 288.148010,111.947311 
	C279.623749,109.809914 271.009735,110.568794 262.416931,110.196686 
	C247.305542,109.542305 234.186005,115.601540 220.995163,121.695335 
	C217.672119,123.230484 215.294510,125.300262 213.524841,128.601212 
	C210.614716,134.029541 202.590179,136.278778 196.575531,133.834122 
	C190.515396,131.370987 187.622925,125.511726 189.342606,119.217606 
	C189.693817,117.932228 189.887497,116.566895 191.270615,115.898933 
	C196.406509,113.418617 200.159958,109.045387 204.756866,105.794556 
	C211.262466,101.193924 217.995407,97.375778 225.598099,95.762466 
	C232.886368,94.215897 239.695084,90.835861 247.255356,90.444687 
	C252.365097,90.180313 257.379333,89.730667 262.540863,90.824471 
	C266.940155,91.756737 271.587219,90.721062 276.137482,90.748932 
	C285.836456,90.808334 294.558624,94.313530 303.478058,97.117058 
	C308.681915,98.752716 313.554169,101.420837 318.643402,103.454727 
	C320.746002,104.295013 322.429901,105.484825 323.711212,107.307777 
	C329.044434,114.895554 336.240570,121.209885 339.259308,130.398254 
	C339.782501,131.990799 340.543488,133.489639 340.351532,135.171082 
	C339.100037,146.132751 338.687073,157.016373 335.269073,167.891937 
	C330.561981,182.869171 319.581879,192.225677 308.805695,201.582886 
	C302.093323,207.411377 292.542114,209.625031 283.762207,211.924042 
	C275.811035,214.006027 267.727631,216.019516 259.267883,215.088608 
	C257.002350,214.839310 254.716660,215.026215 252.151459,213.124985 
	C250.896484,218.317947 252.871536,222.645096 252.479218,226.936646 
	C251.716476,235.280304 254.532440,243.220184 255.674545,251.283127 
	C256.807129,259.278656 257.290100,267.385498 258.826904,275.327728 
	C260.229431,282.576050 257.685944,288.017975 252.111786,289.469635 
	C244.781036,291.378845 237.784042,287.376770 235.632614,280.347351 
	C231.661469,267.372406 231.611328,253.919662 230.940720,240.600510 
	C230.456284,230.978943 230.290253,221.407532 227.318863,211.742249 
z"/>
<path fill="#bc6c25" opacity="1.000000" stroke="none" 
	d="
M437.658661,252.314331 
	C440.799957,256.313660 443.832520,259.949432 446.538818,263.813690 
	C454.268433,274.850494 450.147949,286.366272 447.677673,297.787750 
	C444.966522,310.323059 435.835571,318.408569 426.630463,325.761688 
	C419.527100,331.435974 410.130524,333.185211 401.208618,335.312653 
	C395.147675,336.757935 389.058380,335.956635 382.531677,336.283691 
	C383.562164,343.351105 382.877899,350.309082 384.498657,357.122162 
	C386.644989,366.144501 387.262177,375.391846 388.275208,384.574066 
	C388.781372,389.161865 386.109894,393.093445 382.396057,393.797974 
	C377.040466,394.814026 371.895782,392.244965 370.218292,387.404358 
	C367.927460,380.793793 367.464172,373.814606 366.770264,366.929993 
	C366.039673,359.681305 366.564270,352.367157 365.855225,345.072906 
	C365.444275,340.845337 364.641754,336.791901 362.991394,333.047363 
	C361.293762,329.195648 360.655731,325.598663 363.405853,322.317383 
	C366.323608,318.836029 370.475220,318.073181 374.800964,318.911194 
	C377.727448,319.478149 380.530487,320.700623 383.569916,320.704102 
	C397.190948,320.719788 409.857819,316.563049 419.357941,307.272552 
	C427.839417,298.978241 432.135437,287.590179 431.567047,275.196106 
	C431.250336,268.290558 423.519806,261.492310 417.173798,258.981842 
	C406.228363,254.651825 395.021637,255.194351 383.874725,255.614288 
	C376.299194,255.899658 369.353607,259.809753 362.315552,262.608948 
	C358.148956,264.266083 354.478638,266.555847 352.168701,270.935547 
	C350.208588,274.651978 343.374176,275.466278 339.148682,273.219360 
	C334.852203,270.934692 332.704163,266.590637 334.192627,262.451477 
	C335.631958,258.448853 339.692169,256.824402 342.669159,254.359680 
	C354.652863,244.438034 369.130981,240.716019 384.197571,239.871796 
	C402.087280,238.869415 419.373810,242.020432 435.375061,250.623413 
	C436.097961,251.012085 436.727783,251.573914 437.658661,252.314331 
z"/>
<path fill="#88d498" opacity="1.000000" stroke="none" 
	d="
M136.593323,318.567627 
	C140.988907,311.282227 143.514282,303.836884 142.625931,295.568359 
	C142.060913,290.309235 135.838730,284.648163 131.009460,282.843811 
	C121.548126,279.308838 111.865540,278.671021 102.201309,280.191406 
	C91.950470,281.804169 81.552925,283.831970 74.551971,292.945740 
	C71.689461,296.672150 67.458328,296.570984 63.688732,295.274384 
	C59.697941,293.901642 57.784451,290.601929 58.649380,286.108459 
	C58.876820,284.926849 59.101803,283.862976 60.100727,283.061768 
	C68.291016,276.492889 76.776192,271.146942 87.340294,268.237335 
	C98.436592,265.181183 109.382263,265.724182 120.179565,266.582123 
	C130.114349,267.371552 140.458801,270.355377 148.252670,277.091278 
	C160.565048,287.732330 162.081436,301.410309 156.936554,316.405914 
	C149.136658,339.139984 128.717484,348.731476 108.590706,349.334961 
	C106.136108,349.408569 103.683861,349.560364 101.122208,349.681000 
	C100.653008,363.400696 104.503410,376.291077 105.489388,389.492249 
	C105.904915,395.055695 104.533424,398.255920 100.733772,399.128815 
	C95.757858,400.271942 91.001892,397.566528 89.548553,392.569550 
	C87.596687,385.858490 86.770500,378.970306 86.683815,371.987335 
	C86.566437,362.530853 86.732422,353.042450 82.537514,344.176361 
	C81.212875,341.376709 82.290749,338.771393 84.330711,336.907227 
	C86.988029,334.478973 90.281822,333.080658 93.968849,334.264679 
	C107.528580,338.619263 118.859589,332.956268 130.021561,326.418579 
	C133.037964,324.651886 134.515137,321.596771 136.593323,318.567627 
z"/>
<path fill="#0f4f00" opacity="1.000000" stroke="none" 
	d="
M253.771317,329.511780 
	C248.654373,331.878723 243.763885,331.892700 238.890594,330.125580 
	C234.382828,328.490936 231.351562,325.949219 231.603851,320.301941 
	C231.830536,315.227936 234.389862,312.482117 238.468033,310.444122 
	C240.546326,309.405487 242.561172,308.214081 244.705368,307.338135 
	C250.381989,305.019073 260.540100,308.927338 264.238556,313.976166 
	C269.718597,321.457062 262.409576,329.535187 253.771317,329.511780 
z"/>
<path fill="#bc6c25" opacity="1.000000" stroke="none" 
	d="
M376.024353,407.680603 
	C382.573090,404.505249 387.328064,407.706879 391.495453,411.567535 
	C395.386383,415.172089 393.409210,422.439545 387.836609,423.837646 
	C383.362823,424.960022 378.815002,427.384125 373.794556,425.426788 
	C370.269806,424.052612 367.003540,422.969391 366.791656,418.239014 
	C366.588928,413.713531 368.659058,411.084747 372.555298,409.424713 
	C373.623657,408.969513 374.637085,408.385345 376.024353,407.680603 
z"/>
<path fill="#88d498" opacity="1.000000" stroke="none" 
	d="
M86.799416,419.978760 
	C87.736595,413.830780 91.457558,410.914948 99.982826,410.295776 
	C104.396660,409.975250 107.453117,413.048126 109.673714,416.601013 
	C110.796364,418.397247 110.511681,420.436340 109.277863,422.231567 
	C105.630424,427.538605 93.170021,428.785675 88.443169,424.382751 
	C87.230789,423.253418 86.866180,421.919159 86.799416,419.978760 
z"/>
</svg>